<svg width="166" height="51" viewBox="0 0 166 51" fill="none" xmlns="http://www.w3.org/2000/svg">
<path d="M88.12 18.4C90.2 18.4 92.0533 18.8533 93.68 19.76C95.3333 20.6667 96.6267 21.9467 97.56 23.6C98.4933 25.2533 98.96 27.16 98.96 29.32C98.96 31.48 98.4933 33.4 97.56 35.08C96.6267 36.7333 95.3333 38.0133 93.68 38.92C92.0533 39.8267 90.2 40.28 88.12 40.28C86.6533 40.28 85.3067 40.0267 84.08 39.52C82.88 39.0133 81.8667 38.2533 81.04 37.24V40H76.28V10.32H81.28V21.24C82.1333 20.3067 83.1333 19.6 84.28 19.12C85.4533 18.64 86.7333 18.4 88.12 18.4ZM87.56 36C89.4 36 90.9067 35.3867 92.08 34.16C93.28 32.9333 93.88 31.32 93.88 29.32C93.88 27.32 93.28 25.7067 92.08 24.48C90.9067 23.2533 89.4 22.64 87.56 22.64C86.36 22.64 85.28 22.92 84.32 23.48C83.36 24.0133 82.6 24.7867 82.04 25.8C81.48 26.8133 81.2 27.9867 81.2 29.32C81.2 30.6533 81.48 31.8267 82.04 32.84C82.6 33.8533 83.36 34.64 84.32 35.2C85.28 35.7333 86.36 36 87.56 36ZM110.742 40.28C108.529 40.28 106.795 39.68 105.542 38.48C104.315 37.2533 103.702 35.5333 103.702 33.32V10.32H108.702V32.96C108.702 35.0933 109.702 36.16 111.702 36.16C112.369 36.16 112.969 36.0267 113.502 35.76L113.742 39.76C112.809 40.1067 111.809 40.28 110.742 40.28ZM126.349 40.28C124.189 40.28 122.242 39.8133 120.509 38.88C118.775 37.9467 117.415 36.6533 116.429 35C115.469 33.32 114.989 31.4267 114.989 29.32C114.989 27.2133 115.469 25.3333 116.429 23.68C117.415 22.0267 118.775 20.7333 120.509 19.8C122.242 18.8667 124.189 18.4 126.349 18.4C128.535 18.4 130.495 18.8667 132.229 19.8C133.962 20.7333 135.309 22.0267 136.269 23.68C137.255 25.3333 137.749 27.2133 137.749 29.32C137.749 31.4267 137.255 33.32 136.269 35C135.309 36.6533 133.962 37.9467 132.229 38.88C130.495 39.8133 128.535 40.28 126.349 40.28ZM126.349 36C128.189 36 129.709 35.3867 130.909 34.16C132.109 32.9333 132.709 31.32 132.709 29.32C132.709 27.32 132.109 25.7067 130.909 24.48C129.709 23.2533 128.189 22.64 126.349 22.64C124.509 22.64 122.989 23.2533 121.789 24.48C120.615 25.7067 120.029 27.32 120.029 29.32C120.029 31.32 120.615 32.9333 121.789 34.16C122.989 35.3867 124.509 36 126.349 36ZM163.73 18.64V36.76C163.73 44.28 159.89 48.04 152.21 48.04C150.157 48.04 148.21 47.7733 146.37 47.24C144.53 46.7333 143.01 45.9867 141.81 45L144.05 41.24C144.983 42.0133 146.157 42.6267 147.57 43.08C149.01 43.56 150.463 43.8 151.93 43.8C154.277 43.8 155.997 43.2667 157.09 42.2C158.183 41.1333 158.73 39.5067 158.73 37.32V36.2C157.877 37.1333 156.837 37.84 155.61 38.32C154.383 38.8 153.037 39.04 151.57 39.04C149.543 39.04 147.703 38.6133 146.05 37.76C144.423 36.88 143.13 35.6533 142.17 34.08C141.237 32.5067 140.77 30.7067 140.77 28.68C140.77 26.6533 141.237 24.8667 142.17 23.32C143.13 21.7467 144.423 20.5333 146.05 19.68C147.703 18.8267 149.543 18.4 151.57 18.4C153.117 18.4 154.517 18.6533 155.77 19.16C157.05 19.6667 158.117 20.44 158.97 21.48V18.64H163.73ZM152.33 34.8C154.223 34.8 155.77 34.24 156.97 33.12C158.197 31.9733 158.81 30.4933 158.81 28.68C158.81 26.8933 158.197 25.44 156.97 24.32C155.77 23.2 154.223 22.64 152.33 22.64C150.41 22.64 148.837 23.2 147.61 24.32C146.41 25.44 145.81 26.8933 145.81 28.68C145.81 30.4933 146.41 31.9733 147.61 33.12C148.837 34.24 150.41 34.8 152.33 34.8Z" fill="white"/>
<rect width="73" height="51" rx="5" fill="#2A31E1"/>
<path d="M44.468 14.2V28.378C44.468 31.642 43.6293 34.124 41.952 35.824C40.2973 37.5013 37.9173 38.34 34.812 38.34C33.1347 38.34 31.6387 38.0793 30.324 37.558C29.032 37.014 28.0007 36.2773 27.23 35.348C26.4367 36.2773 25.394 37.014 24.102 37.558C22.8327 38.0793 21.3593 38.34 19.682 38.34C16.5767 38.34 14.1853 37.49 12.508 35.79C10.8307 34.09 9.992 31.6193 9.992 28.378V14.2H14.412V28.242C14.412 30.3953 14.854 31.9707 15.738 32.968C16.6447 33.9653 17.9593 34.464 19.682 34.464C23.2407 34.464 25.02 32.39 25.02 28.242V14.2H29.44V28.242C29.44 32.39 31.2307 34.464 34.812 34.464C38.3253 34.464 40.082 32.39 40.082 28.242V14.2H44.468ZM40.5038 14.2H50.9078C53.4465 14.2 55.7018 14.6987 57.6738 15.696C59.6458 16.6707 61.1758 18.0647 62.2638 19.878C63.3518 21.6687 63.8958 23.7427 63.8958 26.1C63.8958 28.4573 63.3518 30.5427 62.2638 32.356C61.1758 34.1467 59.6458 35.5407 57.6738 36.538C55.7018 37.5127 53.4465 38 50.9078 38H40.5038V14.2ZM50.7038 34.26C52.4491 34.26 53.9791 33.9313 55.2938 33.274C56.6311 32.594 57.6511 31.642 58.3538 30.418C59.0791 29.1713 59.4418 27.732 59.4418 26.1C59.4418 24.468 59.0791 23.04 58.3538 21.816C57.6511 20.5693 56.6311 19.6173 55.2938 18.96C53.9791 18.28 52.4491 17.94 50.7038 17.94H44.9238V34.26H50.7038Z" fill="white"/>
</svg>
